<?xml version="1.0" encoding="UTF-8" standalone="no"?>
<svg
   xmlns:dc="http://purl.org/dc/elements/1.1/"
   xmlns:cc="http://creativecommons.org/ns#"
   xmlns:rdf="http://www.w3.org/1999/02/22-rdf-syntax-ns#"
   xmlns:svg="http://www.w3.org/2000/svg"
   xmlns="http://www.w3.org/2000/svg"
   version="1.1"
   id="svg833"
   xml:space="preserve"
   width="650.39862"
   height="136.14667"
   viewBox="0 0 650.39862 136.14667"><metadata
     id="metadata839"><rdf:RDF><cc:Work
         rdf:about=""><dc:format>image/svg+xml</dc:format><dc:type
           rdf:resource="http://purl.org/dc/dcmitype/StillImage" /><dc:title></dc:title></cc:Work></rdf:RDF></metadata><defs
     id="defs837"><clipPath
       clipPathUnits="userSpaceOnUse"
       id="clipPath853"><path
         d="M 0,792 H 612 V 0 H 0 Z"
         id="path851" /></clipPath></defs><g
     id="g841"
     transform="matrix(1.3333333,0,0,-1.3333333,-77.960931,660.25305)"><g
       id="g843"
       transform="translate(251.6665,431.333)"
       style="opacity:0;fill:#ffffff"><path
         d="M 0,0 -58.667,-1.667 -57.333,28.092 0,26.667 Z M 290.333,59.667 H 243 L 215.333,36.333 190.667,59.667 H -190 v -29.06 l 35.667,-2.515 0.333,-63.425 h 41.667 l -0.334,63.425 h 12 l 0.334,-63.425 H 9 l 10,2.666 7,4 1,-6.666 h 40.667 l -0.667,33 h 44 l 7.333,-8 6,-11.667 3.667,-13.333 h 53.333 l 27.334,23 24,-21.667 h 57.666 v 10 l -45.666,39.333 45.666,35.334 z"
         style="fill:#ffffff;fill-opacity:1;fill-rule:nonzero;stroke:none"
         id="path845" /></g><g
       id="g847"
       style="fill:#ffffff;fill-opacity:1"><g
         id="g849"
         clip-path="url(#clipPath853)"
         style="fill:#ffffff;fill-opacity:1"><g
           id="g855"
           transform="translate(368.7803,463.98)"
           style="fill:#ffffff;fill-opacity:1"><path
             d="m 0,0 -53.59,0.02 -0.011,-9.15 H 9.13 c 0,0 -0.53,2.66 -3.191,5.32 C 3.979,-1.86 0,0 0,0"
             style="fill:#ffffff;fill-opacity:1;fill-rule:nonzero;stroke:none"
             id="path857" /></g><g
           id="g859"
           transform="translate(401.8398,439.3799)"
           style="fill:#ffffff;fill-opacity:1"><path
             d="M 0,0 V 0.04 C -0.12,0.05 -0.22,0.05 -0.3,0.05 -0.21,0.04 -0.1,0.03 0,0"
             style="fill:#ffffff;fill-opacity:1;fill-rule:nonzero;stroke:none"
             id="path861" /></g><g
           id="g863"
           transform="translate(196.79,454.2202)"
           style="fill:#ffffff;fill-opacity:1"><path
             d="m 0,0 c 0.07,0.06 0.13,0.1 0.18,0.13 h 50.47 v -20.45 c -0.19,-0.06 -0.38,-0.12 -0.58,-0.17 L 0,-20.49 Z M -4.92,5.78 C -7.23,3.82 -7.59,1.52 -7.59,1.52 v -29.59 h 58.48 c 0,0 4.07,0.71 5.66,2.48 1.6,1.77 1.69,4.87 1.69,4.87 V 7.72 H -0.5 c 0,0 -2.12,0 -4.42,-1.94"
             style="fill:#ffffff;fill-opacity:1;fill-rule:nonzero;stroke:none"
             id="path865" /></g><g
           id="g867"
           transform="translate(401.54,439.4302)"
           style="fill:#ffffff;fill-opacity:1"><path
             d="M 0,0 -0.07,0.01 C -0.44,0.01 -0.38,0.01 0,0"
             style="fill:#ffffff;fill-opacity:1;fill-rule:nonzero;stroke:none"
             id="path869" /></g><g
           id="g871"
           transform="translate(418.21,462.3901)"
           style="fill:#ffffff;fill-opacity:1"><path
             d="m 0,0 -0.01,-0.01 c 0.05,-0.06 0.1,-0.12 0.14,-0.19 0.02,-0.02 0.04,-0.04 0.05,-0.06 0.06,-0.07 0.11,-0.15 0.17,-0.22 0.02,-0.03 0.04,-0.06 0.06,-0.08 0.05,-0.07 0.1,-0.14 0.15,-0.21 l 0.06,-0.08 0.14,-0.2 c 0.02,-0.03 0.05,-0.07 0.07,-0.1 L 0.95,-1.33 C 0.98,-1.36 1,-1.4 1.021,-1.43 1.06,-1.49 1.1,-1.55 1.14,-1.61 c 0.03,-0.04 0.05,-0.08 0.08,-0.12 0.04,-0.05 0.07,-0.11 0.11,-0.16 0.02,-0.04 0.05,-0.08 0.08,-0.12 0.03,-0.05 0.06,-0.1 0.09,-0.15 0.03,-0.05 0.06,-0.1 0.09,-0.15 0.03,-0.04 0.06,-0.08 0.08,-0.13 0.03,-0.05 0.06,-0.1 0.09,-0.15 0.03,-0.04 0.05,-0.08 0.07,-0.12 0.04,-0.06 0.07,-0.11 0.1,-0.17 0.02,-0.03 0.04,-0.07 0.06,-0.1 0.031,-0.06 0.07,-0.12 0.1,-0.18 0.02,-0.03 0.03,-0.06 0.05,-0.09 l 0.11,-0.2 c 0.01,-0.01 0.021,-0.03 0.03,-0.04 0.04,-0.08 0.08,-0.16 0.12,-0.23 0.01,-0.01 0.01,-0.02 0.02,-0.04 2.53,-4.81 2.75,-9.37 2.28,-12.87 -0.53,-3.93 -1.95,-6.5 -1.95,-6.5 0,0 -15.76,0.13 -19.11,0.16 v -0.04 c 3.73,-0.99 11.67,-15.53 11.67,-15.53 l 23.38,19.49 -3.99,4.07 z"
             style="fill:#ffffff;fill-opacity:1;fill-rule:nonzero;stroke:none"
             id="path873" /></g><g
           id="g875"
           transform="translate(538.6797,485.0098)"
           style="fill:#ffffff;fill-opacity:1"><path
             d="M 0,0 -22.149,-17.28 H -22.16 L -48.979,-38.13 0,-80.09 v -4.26 h -52.569 l -26.88,23.54 -27.191,-23.54 h -49.089 c -0.42,1.69 -2.34,8.75 -6.821,17.7 -5.13,10.27 -12.389,15.06 -12.389,15.06 h -48.38 v -32.76 h -32.961 v 11.5 c 0,0 -3.72,-4.26 -8.32,-7.27 -5.15,-3.38 -8.43,-4.1 -9.21,-4.23 h -109.51 v 63.76 h -19.659 V -84.35 H -437 v 63.59 h -35.62 V 2.76 h 106.24 l -5.51,-7.32 v -0.4 c 1.29,1.43 2.74,2.93 4.161,4.18 3.719,3.22 7.119,3.54 7.699,3.54 l 2.75,-0.01 h 92.15 c 0,0 5.84,-0.35 6.901,-7.08 0.309,-1.93 0.54,-18.42 0.54,-18.42 l 0.349,25.55 h 87.891 0.189 c 1.771,0 14.941,-0.16 24.35,-4.78 8.65,-4.25 16.85,-11.19 17.421,-11.67 l -8.83,7.94 -9.17,8.47 h 47.05 L -72.01,-22.36 -42.92,2.76 H 0 Z m 7.59,10.18 h -53.46 l -25.88,-22.3 -23.42,22.3 h -385.039 v -38.53 h 35.619 v -63.58 h 49.2 v 63.75 h 4.49 v -63.75 h 117.73 l 0.63,0.1 c 1.57,0.27 4.54,1.04 8.68,3.3 v -3.4 h 48.121 v 32.75 h 38.159 c 1.98,-1.76 5.5,-5.36 8.25,-10.87 4.181,-8.36 5.931,-14.92 6.24,-16.15 l 1.441,-5.73 h 57.839 l 24.331,21.07 24.059,-21.07 H 7.59 v 15.34 l -44.569,38.17 44.569,34.7 z"
             style="fill:#ffffff;fill-opacity:1;fill-rule:nonzero;stroke:none"
             id="path877" /></g></g></g></g></svg>
